<svg width="25" height="24" viewBox="0 0 25 24" fill="none" xmlns="http://www.w3.org/2000/svg">
<g clip-path="url(#clip0_9748_31005)">
<path d="M24.4888 12.2244C24.4888 11.2412 24.4071 10.5236 24.2304 9.77954H12.7393V14.2175H19.4843C19.3484 15.3204 18.614 16.9814 16.9821 18.0975L16.9592 18.246L20.5925 20.9962L20.8442 21.0208C23.156 18.9346 24.4888 15.8652 24.4888 12.2244Z" fill="#4285F4"/>
<path d="M12.7393 23.9176C16.0438 23.9176 18.8179 22.8545 20.8442 21.0209L16.9821 18.0976C15.9486 18.8018 14.5615 19.2934 12.7393 19.2934C9.50273 19.2934 6.75576 17.2074 5.77654 14.324L5.63301 14.3359L1.85507 17.1927L1.80566 17.3269C3.81829 21.2334 7.95238 23.9176 12.7393 23.9176Z" fill="#34A853"/>
<path d="M5.77634 14.324C5.51797 13.58 5.36844 12.7826 5.36844 11.9589C5.36844 11.135 5.51797 10.3378 5.76275 9.59366L5.75591 9.43519L1.93063 6.53247L1.80547 6.59064C0.975969 8.21174 0.5 10.0322 0.5 11.9589C0.5 13.8855 0.975969 15.7059 1.80547 17.327L5.77634 14.324Z" fill="#FBBC05"/>
<path d="M12.7393 4.62403C15.0374 4.62403 16.5877 5.59402 17.4717 6.40461L20.9258 3.10928C18.8044 1.1826 16.0438 0 12.7393 0C7.95238 0 3.81829 2.68406 1.80566 6.59056L5.76295 9.59359C6.75576 6.7102 9.50273 4.62403 12.7393 4.62403Z" fill="#EB4335"/>
</g>
<defs>
<clipPath id="clip0_9748_31005">
<rect width="24" height="24" fill="white" transform="translate(0.5)"/>
</clipPath>
</defs>
</svg>
