<svg width="24" height="24" viewBox="0 0 24 24" fill="none" xmlns="http://www.w3.org/2000/svg">
<path d="M22.0007 7.25024H16.0007C15.5907 7.25024 15.2507 6.91024 15.2507 6.50024C15.2507 6.09024 15.5907 5.75024 16.0007 5.75024H22.0007C22.4107 5.75024 22.7507 6.09024 22.7507 6.50024C22.7507 6.91024 22.4107 7.25024 22.0007 7.25024Z" fill="#707070"/>
<path d="M6 7.25024H2C1.59 7.25024 1.25 6.91024 1.25 6.50024C1.25 6.09024 1.59 5.75024 2 5.75024H6C6.41 5.75024 6.75 6.09024 6.75 6.50024C6.75 6.91024 6.41 7.25024 6 7.25024Z" fill="#707070"/>
<path d="M9.99878 10.7502C7.65878 10.7502 5.74878 8.84024 5.74878 6.50024C5.74878 4.16024 7.65878 2.25024 9.99878 2.25024C12.3388 2.25024 14.2488 4.16024 14.2488 6.50024C14.2488 8.84024 12.3388 10.7502 9.99878 10.7502ZM9.99878 3.75024C8.47878 3.75024 7.24878 4.98024 7.24878 6.50024C7.24878 8.02024 8.47878 9.25024 9.99878 9.25024C11.5188 9.25024 12.7488 8.02024 12.7488 6.50024C12.7488 4.98024 11.5188 3.75024 9.99878 3.75024Z" fill="#707070"/>
<path d="M21.9993 18.2498H17.9993C17.5893 18.2498 17.2493 17.9098 17.2493 17.4998C17.2493 17.0898 17.5893 16.7498 17.9993 16.7498H21.9993C22.4093 16.7498 22.7493 17.0898 22.7493 17.4998C22.7493 17.9098 22.4093 18.2498 21.9993 18.2498Z" fill="#707070"/>
<path d="M8 18.2498H2C1.59 18.2498 1.25 17.9098 1.25 17.4998C1.25 17.0898 1.59 16.7498 2 16.7498H8C8.41 16.7498 8.75 17.0898 8.75 17.4998C8.75 17.9098 8.41 18.2498 8 18.2498Z" fill="#707070"/>
<path d="M13.9993 21.7502C11.6593 21.7502 9.74927 19.8402 9.74927 17.5002C9.74927 15.1602 11.6593 13.2502 13.9993 13.2502C16.3393 13.2502 18.2493 15.1602 18.2493 17.5002C18.2493 19.8402 16.3393 21.7502 13.9993 21.7502ZM13.9993 14.7502C12.4793 14.7502 11.2493 15.9802 11.2493 17.5002C11.2493 19.0202 12.4793 20.2502 13.9993 20.2502C15.5193 20.2502 16.7493 19.0202 16.7493 17.5002C16.7493 15.9802 15.5193 14.7502 13.9993 14.7502Z" fill="#707070"/>
</svg>
