<svg width="28" height="32" viewBox="0 0 28 32" fill="none" xmlns="http://www.w3.org/2000/svg">
<g clip-path="url(#clip0_9748_32033)">
<path d="M11.9303 18.7243L21.6939 3.07157C22.0836 2.44689 23.0085 2.49558 23.3304 3.15771L27.0717 10.8529C27.4263 11.5823 27.2711 12.457 26.6873 13.0199L16.2776 23.0551L11.9303 18.7243Z" fill="#F7941F"/>
<path fill-rule="evenodd" clip-rule="evenodd" d="M7.56185 29.6246L1.911 15.3337C1.71987 14.8504 1.95901 14.3039 2.44372 14.1162L5.30813 13.0075C5.66284 12.8702 6.06536 12.9611 6.32662 13.2375L15.6382 23.0897C15.7119 23.1676 15.75 23.2725 15.7437 23.3795L9.09032 29.9467C8.61265 30.4182 7.80865 30.2487 7.56185 29.6246Z" fill="#5D21E6"/>
<path d="M1.911 15.3337L1.9203 15.3301L1.911 15.3337ZM7.56185 29.6246L7.57115 29.6209L7.56185 29.6246ZM2.44372 14.1162L2.44733 14.1256L2.44372 14.1162ZM5.30813 13.0075L5.30452 12.9981L5.30813 13.0075ZM6.32662 13.2375L6.33389 13.2306L6.32662 13.2375ZM15.6382 23.0897L15.6455 23.0829L15.6382 23.0897ZM15.7437 23.3795L15.7532 23.3891L15.7537 23.3801L15.7437 23.3795ZM9.09032 29.9467L9.09735 29.9538L9.09032 29.9467ZM1.9017 15.3374L7.55255 29.6283L7.57115 29.6209L1.9203 15.3301L1.9017 15.3374ZM2.44011 14.1069C1.95022 14.2966 1.70853 14.8489 1.9017 15.3374L1.9203 15.3301C1.73121 14.8519 1.96779 14.3112 2.44733 14.1256L2.44011 14.1069ZM5.30452 12.9981L2.44011 14.1069L2.44733 14.1256L5.31174 13.0168L5.30452 12.9981ZM6.33389 13.2306C6.06984 12.9512 5.66301 12.8594 5.30452 12.9981L5.31174 13.0168C5.66266 12.8809 6.06088 12.9709 6.31935 13.2444L6.33389 13.2306ZM15.6455 23.0829L6.33389 13.2306L6.31935 13.2444L15.631 23.0966L15.6455 23.0829ZM15.7537 23.3801C15.7602 23.2703 15.721 23.1628 15.6455 23.0829L15.631 23.0966C15.7027 23.1725 15.7399 23.2747 15.7337 23.3789L15.7537 23.3801ZM9.09735 29.9538L15.7507 23.3866L15.7367 23.3724L9.0833 29.9396L9.09735 29.9538ZM7.55255 29.6283C7.80199 30.2591 8.61458 30.4303 9.09735 29.9538L9.0833 29.9396C8.61073 30.406 7.81531 30.2384 7.57115 29.6209L7.55255 29.6283Z" fill="#5D21E6"/>
</g>
<defs>
<clipPath id="clip0_9748_32033">
<rect width="32" height="28" fill="white" transform="matrix(0 -1 1 0 0 32)"/>
</clipPath>
</defs>
</svg>
