<svg width="130" height="34" viewBox="0 0 130 34" fill="none" xmlns="http://www.w3.org/2000/svg">
<g clip-path="url(#clip0_1356_52956)">
<path d="M12.7819 19.8005L22.5455 4.14775C22.9351 3.52307 23.8601 3.57175 24.182 4.23388L27.9233 11.9291C28.2779 12.6585 28.1227 13.5332 27.5388 14.0961L17.1292 24.1313L12.7819 19.8005Z" fill="#F7941F"/>
<path fill-rule="evenodd" clip-rule="evenodd" d="M8.41244 30.7008L2.76158 16.4099C2.57046 15.9266 2.80959 15.38 3.2943 15.1924L6.15871 14.0836C6.51342 13.9463 6.91594 14.0372 7.17721 14.3137L16.4888 24.1659C16.5624 24.2438 16.6006 24.3487 16.5943 24.4557L9.94091 31.0229C9.46324 31.4943 8.65924 31.3249 8.41244 30.7008Z" fill="#5D21E6"/>
<path d="M2.76158 16.4099L2.77088 16.4062L2.76158 16.4099ZM8.41244 30.7008L8.42174 30.6971L8.41244 30.7008ZM3.2943 15.1924L3.2907 15.1831L3.2943 15.1924ZM6.15871 14.0836L6.1551 14.0743L6.15871 14.0836ZM7.17721 14.3137L7.18447 14.3068L7.17721 14.3137ZM16.4888 24.1659L16.4961 24.159L16.4888 24.1659ZM16.5943 24.4557L16.6038 24.4653L16.6043 24.4563L16.5943 24.4557ZM9.94091 31.0229L9.94793 31.03L9.94091 31.0229ZM2.75228 16.4136L8.40314 30.7044L8.42174 30.6971L2.77088 16.4062L2.75228 16.4136ZM3.2907 15.1831C2.80081 15.3727 2.55912 15.9251 2.75228 16.4136L2.77088 16.4062C2.5818 15.928 2.81838 15.3874 3.29791 15.2017L3.2907 15.1831ZM6.1551 14.0743L3.2907 15.1831L3.29791 15.2017L6.16232 14.093L6.1551 14.0743ZM7.18447 14.3068C6.92042 14.0274 6.5136 13.9355 6.1551 14.0743L6.16232 14.093C6.51324 13.9571 6.91147 14.0471 7.16994 14.3205L7.18447 14.3068ZM16.4961 24.159L7.18447 14.3068L7.16994 14.3205L16.4815 24.1728L16.4961 24.159ZM16.6043 24.4563C16.6108 24.3465 16.5716 24.2389 16.4961 24.159L16.4815 24.1728C16.5533 24.2487 16.5905 24.3508 16.5843 24.4551L16.6043 24.4563ZM9.94793 31.03L16.6013 24.4628L16.5873 24.4486L9.93389 31.0157L9.94793 31.03ZM8.40314 30.7044C8.65257 31.3353 9.46516 31.5065 9.94793 31.03L9.93389 31.0157C9.46131 31.4822 8.6659 31.3146 8.42174 30.6971L8.40314 30.7044Z" fill="#5D21E6"/>
</g>
<path d="M42.8384 26.167V11.935H37.3904V8.88699H51.5504V11.935H46.1024V26.167H42.8384ZM54.6788 26.167V8.88699H57.9428V26.167H54.6788ZM69.9164 26.527C68.1884 26.527 66.6964 26.151 65.4404 25.399C64.1924 24.647 63.2284 23.595 62.5484 22.243C61.8764 20.891 61.5404 19.319 61.5404 17.527C61.5404 15.735 61.8764 14.163 62.5484 12.811C63.2284 11.459 64.1924 10.407 65.4404 9.65499C66.6964 8.90299 68.1884 8.52699 69.9164 8.52699C71.9004 8.52699 73.5644 9.01899 74.9084 10.003C76.2604 10.987 77.2124 12.319 77.7644 13.999L74.4764 14.911C74.1564 13.863 73.6164 13.051 72.8564 12.475C72.0964 11.891 71.1164 11.599 69.9164 11.599C68.8204 11.599 67.9044 11.843 67.1684 12.331C66.4404 12.819 65.8924 13.507 65.5244 14.395C65.1564 15.283 64.9724 16.327 64.9724 17.527C64.9724 18.727 65.1564 19.771 65.5244 20.659C65.8924 21.547 66.4404 22.235 67.1684 22.723C67.9044 23.211 68.8204 23.455 69.9164 23.455C71.1164 23.455 72.0964 23.163 72.8564 22.579C73.6164 21.995 74.1564 21.183 74.4764 20.143L77.7644 21.055C77.2124 22.735 76.2604 24.067 74.9084 25.051C73.5644 26.035 71.9004 26.527 69.9164 26.527ZM81.3666 26.167V8.88699H84.6306V16.855L91.2066 8.88699H95.1906L87.9666 17.407L95.6466 26.167H91.5186L84.6306 18.295V26.167H81.3666ZM98.2876 26.167V8.88699H109.568V11.935H101.552V15.631H108.128V18.679H101.552V23.119H109.568V26.167H98.2876ZM113.404 26.167V8.88699H118.996C119.132 8.88699 119.412 8.89099 119.836 8.89899C120.26 8.90699 120.668 8.93499 121.06 8.98299C122.452 9.15099 123.632 9.63499 124.6 10.435C125.568 11.235 126.304 12.251 126.808 13.483C127.312 14.715 127.564 16.063 127.564 17.527C127.564 18.991 127.312 20.339 126.808 21.571C126.304 22.803 125.568 23.819 124.6 24.619C123.632 25.419 122.452 25.903 121.06 26.071C120.668 26.119 120.26 26.147 119.836 26.155C119.412 26.163 119.132 26.167 118.996 26.167H113.404ZM116.716 23.095H118.996C119.212 23.095 119.504 23.091 119.872 23.083C120.24 23.067 120.572 23.031 120.868 22.975C121.62 22.823 122.232 22.471 122.704 21.919C123.184 21.367 123.536 20.703 123.76 19.927C123.992 19.151 124.108 18.351 124.108 17.527C124.108 16.663 123.988 15.843 123.748 15.067C123.516 14.291 123.16 13.635 122.68 13.099C122.2 12.563 121.596 12.223 120.868 12.079C120.572 12.015 120.24 11.979 119.872 11.971C119.504 11.963 119.212 11.959 118.996 11.959H116.716V23.095Z" fill="#333333"/>
<defs>
<clipPath id="clip0_1356_52956">
<rect width="32.8184" height="28.2986" fill="white" transform="translate(0.851562 33.0762) rotate(-90)"/>
</clipPath>
</defs>
</svg>
