<svg width="25" height="24" viewBox="0 0 25 24" fill="none" xmlns="http://www.w3.org/2000/svg">
<path d="M8.82031 19H8.32031C4.32031 19 2.32031 18 2.32031 13V8C2.32031 4 4.32031 2 8.32031 2H16.3203C20.3203 2 22.3203 4 22.3203 8V13C22.3203 17 20.3203 19 16.3203 19H15.8203C15.5103 19 15.2103 19.15 15.0203 19.4L13.5203 21.4C12.8603 22.28 11.7803 22.28 11.1203 21.4L9.62031 19.4C9.46031 19.18 9.09031 19 8.82031 19Z" stroke="#898B94" stroke-width="1.5" stroke-miterlimit="10" stroke-linecap="round" stroke-linejoin="round"/>
<path d="M16.3168 11H16.3258" stroke="#898B94" stroke-width="2" stroke-linecap="round" stroke-linejoin="round"/>
<path d="M12.3148 11H12.3238" stroke="#898B94" stroke-width="2" stroke-linecap="round" stroke-linejoin="round"/>
<path d="M8.31482 11H8.3238" stroke="#898B94" stroke-width="2" stroke-linecap="round" stroke-linejoin="round"/>
</svg>
