<svg width="21" height="18" viewBox="0 0 21 18" fill="none" xmlns="http://www.w3.org/2000/svg">
<path d="M11.7768 17.2724H9.20597C9.01687 17.2741 8.82933 17.2358 8.65437 17.1596C8.47942 17.0833 8.32056 16.9707 8.18713 16.8284C8.0537 16.6861 7.94839 16.5169 7.87737 16.3307C7.80635 16.1446 7.77106 15.9453 7.77356 15.7444V2.24541C7.78486 1.65136 8.01293 1.08518 8.40969 0.666277C8.80645 0.247375 9.34088 0.00849011 9.90028 0H11.1075C11.6679 0.0102918 12.2026 0.25177 12.5984 0.673331C12.9941 1.09489 13.2199 1.66345 13.228 2.25869V15.7577C13.2288 15.9591 13.1917 16.1587 13.1188 16.3446C13.0459 16.5306 12.9386 16.6991 12.8033 16.8403C12.6681 16.9815 12.5075 17.0924 12.3312 17.1666C12.1549 17.2409 11.9664 17.2768 11.7768 17.2724Z" fill="#29319F"/>
<path d="M4.47756 17.2722H1.99C1.79386 17.2741 1.59933 17.2334 1.41779 17.1526C1.23624 17.0718 1.0713 16.9524 0.932599 16.8014C0.7939 16.6504 0.684217 16.4709 0.609952 16.2733C0.535688 16.0757 0.498329 15.8639 0.500057 15.6504V7.84459C0.500046 7.5289 0.557486 7.21632 0.669061 6.92492C0.780636 6.63351 0.944135 6.36905 1.15012 6.1468C1.3561 5.92456 1.60049 5.74892 1.86918 5.63005C2.13786 5.51117 2.42552 5.4514 2.71554 5.4542H3.76498C4.34628 5.45606 4.90319 5.70873 5.31363 6.15682C5.72407 6.6049 5.95455 7.21184 5.95455 7.84459V15.6645C5.95455 16.0909 5.79893 16.4998 5.52195 16.8013C5.24496 17.1028 4.86928 17.2722 4.47756 17.2722Z" fill="#29319F"/>
<path d="M18.952 17.2724H16.5668C16.1647 17.2643 15.7814 17.104 15.4975 16.825C15.2137 16.5461 15.0515 16.1702 15.0449 15.7766V12.178C15.0449 11.8914 15.1027 11.6077 15.2149 11.3431C15.3272 11.0784 15.4916 10.838 15.699 10.6357C15.9063 10.4334 16.1523 10.2731 16.4231 10.164C16.6938 10.0549 16.9839 9.99919 17.2766 10H18.2678C18.5605 9.99919 18.8506 10.0549 19.1213 10.164C19.392 10.2731 19.6381 10.4334 19.8454 10.6357C20.0527 10.838 20.2172 11.0784 20.3295 11.3431C20.4417 11.6077 20.4995 11.8914 20.4995 12.178V15.7891C20.4995 15.9866 20.4593 16.182 20.3811 16.3641C20.303 16.5461 20.1885 16.711 20.0443 16.8492C19.9002 16.9873 19.7293 17.0959 19.5418 17.1686C19.3542 17.2413 19.1537 17.2766 18.952 17.2724Z" fill="#29319F"/>
</svg>
